<mxfile host="app.diagrams.net" modified="2021-12-14T08:56:35.579Z" agent="5.0 (X11; Linux x86_64) AppleWebKit/537.36 (KHTML, like Gecko) Chrome/96.0.4664.97 Safari/537.36" etag="5F2DlRFMSeAhV_svbH-w" version="15.9.6" type="github">
  <diagram id="18Pgu8d3zG_lzIgKMme3" name="Page-1">
    <mxGraphModel dx="723" dy="388" grid="1" gridSize="10" guides="1" tooltips="1" connect="1" arrows="1" fold="1" page="1" pageScale="1" pageWidth="827" pageHeight="1169" math="0" shadow="0">
      <root>
        <mxCell id="0" />
        <mxCell id="1" parent="0" />
        <mxCell id="1IuEYxSpLlld1FUxBvtE-1" value="" style="shape=ext;double=1;whiteSpace=wrap;html=1;aspect=fixed;" parent="1" vertex="1">
          <mxGeometry x="360" y="160" width="80" height="80" as="geometry" />
        </mxCell>
        <mxCell id="1IuEYxSpLlld1FUxBvtE-2" value="" style="shape=ext;double=1;whiteSpace=wrap;html=1;aspect=fixed;direction=south;rotation=45;" parent="1" vertex="1">
          <mxGeometry x="360" y="160" width="80" height="80" as="geometry" />
        </mxCell>
        <mxCell id="1IuEYxSpLlld1FUxBvtE-12" value="" style="shape=image;html=1;verticalAlign=top;verticalLabelPosition=bottom;labelBackgroundColor=#ffffff;imageAspect=0;aspect=fixed;image=https://cdn2.iconfinder.com/data/icons/font-awesome/1792/code-128.png" parent="1" vertex="1">
          <mxGeometry x="368" y="168" width="64" height="64" as="geometry" />
        </mxCell>
      </root>
    </mxGraphModel>
  </diagram>
</mxfile>
